HIERARCHY
ROOT Hips
{
	OFFSET	0.00	0.00	0.00
	CHANNELS 6 Xposition Yposition Zposition Zrotation Xrotation Yrotation
	JOINT Spine
	{
		OFFSET	 0.00	0.01	 0.00
		CHANNELS 3 Zrotation Xrotation Yrotation
		JOINT Spine1
		{
			OFFSET	 0.00	 2.45913012437421	 0.00
			CHANNELS 3 Zrotation Xrotation Yrotation
            JOINT Neck
            {
                OFFSET	 0.00	 2.48462964506057	 0.00
                CHANNELS 3 Zrotation Xrotation Yrotation
                JOINT Head
                {
                    OFFSET	 0.00	 0.927524780924562	 0.00
                    CHANNELS 3 Zrotation Xrotation Yrotation
                    End Site 
                    {
                        OFFSET	 0.00	 1.14999962169752	 0.00
                    }
                }
            }
			JOINT LeftShoulder
			{
				OFFSET	 0.00	 2.48462964506057	 0.00
				CHANNELS 3 Zrotation Xrotation Yrotation
				JOINT LeftUpArm
				{
					OFFSET	 0.00	 1.24881979654096	 0.00
					CHANNELS 3 Zrotation Xrotation Yrotation
					JOINT LeftForeArm
					{
						OFFSET	 0.00	2.59758046908119	 0.00
						CHANNELS 3 Zrotation Xrotation Yrotation
						JOINT LeftHand
						{
							OFFSET	 0.00	2.45542024364365	 0.00
							CHANNELS 3 Zrotation Xrotation Yrotation
							JOINT LeftHandThumb 
							{
								OFFSET	 0.00	0.00	 0.00
								CHANNELS 3 Zrotation Xrotation Yrotation
								End Site
								{
									OFFSET	 0.00	0.00	1.00000003353624
								}
							}
							JOINT L_Wrist_End 
							{
								OFFSET	 0.00	0.99999967115358	 0.00
								CHANNELS 3 Zrotation Xrotation Yrotation
								End Site 
								{
									OFFSET	 0.00	 0.00	 0.00
								}
							}
						}
					}
				}
			}
			JOINT RightShoulder
			{
				OFFSET	 0.00	 2.48462964506057	 0.00
				CHANNELS 3 Zrotation Xrotation Yrotation
				JOINT RightUpArm
				{
					OFFSET	 0.00	 1.24881979654096	 0.00
					CHANNELS 3 Zrotation Xrotation Yrotation
					JOINT RightForeArm
					{
						OFFSET	 0.00	2.59758046908119	 0.00
						CHANNELS 3 Zrotation Xrotation Yrotation
						JOINT RightHand
						{
							OFFSET	 0.00	2.45542024364365	 0.00
							CHANNELS 3 Zrotation Xrotation Yrotation
							JOINT RightHandThumb 
							{
								OFFSET	 0.00	0.00	 0.00
								CHANNELS 3 Zrotation Xrotation Yrotation
								End Site
								{
									OFFSET	 0.00	0.00	1.00000003353624
								}
							}
							JOINT R_Wrist_End 
							{
								OFFSET	 0.00	0.99999967115358	 0.00
								CHANNELS 3 Zrotation Xrotation Yrotation
								End Site 
								{
									OFFSET	 0.00	 0.00	 0.00
								}
							}
						}
					}
				}
			}
		}
	}
	JOINT LeftUpLeg
	{
		OFFSET	 1.2719394002717	 0.00	 0.00
		CHANNELS 3 Zrotation Xrotation Yrotation
		JOINT LeftLowLeg
		{
			OFFSET	 0.00	-4.3429100912261	 0.00
			CHANNELS 3 Zrotation Xrotation Yrotation
			JOINT LeftFoot
			{
				OFFSET	 0.00	-4.48767017425826	 0.00
				CHANNELS 3 Zrotation Xrotation Yrotation
				JOINT LeftToeBase
                {
                    OFFSET	 0.00	0.00	 1.51507020887566
                    CHANNELS 3 Zrotation Xrotation Yrotation
                    End Site 
                    {
                        OFFSET	 0.00	0.00	 0.75000010571191
                    }
                }
			}
		}
	}
	JOINT RightUpLeg
	{
		OFFSET	 -1.2719393604653	 0.00	 0.00
		CHANNELS 3 Zrotation Xrotation Yrotation
		JOINT RightLowLeg
		{
			OFFSET	 0.00	-4.3429100912261	 0.00
			CHANNELS 3 Zrotation Xrotation Yrotation
			JOINT RightFoot
			{
				OFFSET	 0.00	-4.48767017425826	 0.00
				CHANNELS 3 Zrotation Xrotation Yrotation
				JOINT RightToeBase
                {
                    OFFSET	 0.00	0.00	 1.51507020887566
                    CHANNELS 3 Zrotation Xrotation Yrotation
                    End Site 
                    {
                        OFFSET	 0.00	0.00	 0.749999965609858
                    }
                }   
			}
		}
	}
}
MOTION 
Frames:	20 
Frame Time: 0.02 
  -7.540679931640625 8.789349975585937 8.854749755859375 93.6732 75.2324 957.123 2.11221 -15.498 37.2446 -5.78294 9.39832 -25.9424 -12.4229 45.8012 388.913 -47.5663 -76.4503 -396.154 -113.155396 -10.3974 359.28 -46.3408 13.8199 -52.2335 0.0 120.353 0.0 69.3112 -45.6395 -10.218 0.0 0.0 0.0 0.0 0.0 0.0 110.2166 -8.85872 -360.97 58.8579 -4.31324 4.22832 0.0 16.4208 0.0 -1.53732 -11.3479 11.6061 0.0 0.0 0.0 0.0 0.0 0.0 -22.3619 -7.79969 -3.82858 0.0 10.7068 0.0 -6.05167 -1.9468002 13.7467 0.0 -18.25571 0.0 -12.7727 -28.9006 2.47705 0.0 83.2727 0.0 35.25 8.5947 -4.57444 0.0 -23.36895 0.0 
  -7.612479858398437 8.67385986328125 8.866190185546875 94.7304 76.1471 956.105 1.82665 -14.7466 36.6444 -5.30501 8.79788 -26.4988 -10.2684 46.0883 387.304 -44.1491 -76.953 -393.157 -112.547195 -10.4212 359.51 -46.6632 14.5807 -51.368 0.0 120.086 0.0 69.5543 -45.0915 -9.5148 0.0 0.0 0.0 0.0 0.0 0.0 110.2742 -9.33958 -360.6 59.0509 -4.62183 4.87945 0.0 16.3211 0.0 -2.11223 -11.6532 13.7463 0.0 0.0 0.0 0.0 0.0 0.0 -21.5165 -7.02191 -3.811 0.0 11.3964 0.0 -5.73615 -2.8250008 14.1626 0.0 -17.97487 0.0 -10.67 -31.6599 3.11278 0.0 83.1132 0.0 33.7132 5.29045 -5.65948 0.0 -22.01759 0.0 
  -7.702080078125 8.542030029296875 8.882630004882813 97.6309 77.1045 953.503 1.32283 -14.8235 35.7107 -4.03865 8.34049 -27.0771 -8.45722 46.4726 386.088 -41.5378 -77.6775 -391.275 -112.3444 -9.97762 359.398 -46.7795 14.3317 -51.3051 0.0 120.468 0.0 67.7266 -46.1906 -11.2427 0.0 0.0 0.0 0.0 0.0 0.0 110.4822 -9.4873 -360.348 58.7999 -5.14507 5.54085 0.0 16.3929 0.0 -0.805678 -9.56141 9.12229 0.0 0.0 0.0 0.0 0.0 0.0 -20.4038 -6.15897 -4.08907 0.0 11.7338 0.0 -5.79989 -3.7234993 14.5492 0.0 -18.16937 0.0 -8.2208 -33.9207 3.76048 0.0 81.5666 0.0 32.8604 2.2124004 -6.71307 0.0 -19.91304 0.0 
  -7.793889770507812 8.408909912109374 8.897369995117188 98.5745 78.5256 953.215 0.863119 -14.3052 34.7096 -2.89587 8.1654 -27.7775 -5.70203 46.8012 383.988 -37.4563 -78.3996 -387.885 -111.9035 -9.6669 359.678 -46.9121 14.7802 -50.7198 0.0 120.63 0.0 67.8347 -45.674 -11.4278 0.0 0.0 0.0 0.0 0.0 0.0 110.849 -9.7062 -360.25 58.5097 -5.46132 6.19966 0.0 16.5964 0.0 -0.877544 -10.3217 11.8911 0.0 0.0 0.0 0.0 0.0 0.0 -19.225 -4.60862 -4.76363 0.0 12.1867 0.0 -5.36452 -4.4787006 15.338 0.0 -18.32904 0.0 -5.50786 -35.1078 4.91776 0.0 79.1593 0.0 33.4232 -0.32400036 -7.10854 0.0 -19.21919 0.0 
  -7.879559936523438 8.294390258789063 8.905900268554687 102.054 79.2066 950.066 0.0679168 -14.0992 33.8585 -1.9802 7.62758 -28.1193 -2.51385 47.2747 381.445 -33.229 -79.2688 -384.334 -111.5017 -9.24434 360.004 -46.9451 15.3239 -50.2553 0.0 120.9 0.0 67.8601 -45.2393 -11.5822 0.0 0.0 0.0 0.0 0.0 0.0 111.2332 -9.88756 -360.108 58.1519 -5.78863 6.38254 0.0 16.7671 0.0 -0.608575 -10.6625 11.2545 0.0 0.0 0.0 0.0 0.0 0.0 -18.2936 -4.07318 -5.21255 0.0 12.792 0.0 -5.42028 -5.366501 15.7421 0.0 -18.25423 0.0 -3.08674 -37.027 6.30307 0.0 75.9507 0.0 33.2756 -1.6501999 -7.33471 0.0 -20.97262 0.0 
  -7.961530151367188 8.183920288085938 8.909600219726563 110.0 78.806 942.605 -0.887352 -14.8552 32.9604 -1.33042 6.84095 -28.3912 0.627617 47.6105 378.987 -28.0704 -80.0617 -380.05 -111.1761 -8.95346 358.791 -47.1301 14.7712 -48.6929 0.0 121.133 0.0 67.1798 -45.5087 -12.8458 0.0 0.0 0.0 0.0 0.0 0.0 111.628 -10.3075 -358.981 57.6851 -6.83365 5.79478 0.0 16.902 0.0 -0.482597 -10.8491 10.779 0.0 0.0 0.0 0.0 0.0 0.0 -17.5651 -4.76118 -5.92119 0.0 13.3674 0.0 -5.59518 -6.1833 15.9007 0.0 -18.26574 0.0 -1.10324 -39.8808 7.6766 0.0 72.0029 0.0 33.1154 -2.4897003 -7.04 0.0 -21.02202 0.0 
  -8.043309936523437 8.071900024414063 8.908330078125 115.626 78.3075 937.281 -1.92089 -15.4833 32.1817 -0.725565 6.38453 -28.4632 3.79415 47.7889 376.588 -21.3528 -80.7232 -374.34 -110.8674 -8.33026 358.997 -46.9219 15.24 -48.3372 0.0 121.484 0.0 67.6166 -45.5763 -11.7835 0.0 0.0 0.0 0.0 0.0 0.0 111.9693 -10.6144 -358.695 57.4467 -7.02152 6.00868 0.0 16.6728 0.0 -0.349663 -10.5305 11.6542 0.0 0.0 0.0 0.0 0.0 0.0 -17.0118 -5.14316 -6.2088 0.0 13.8103 0.0 -6.0844 -7.0333996 15.7492 0.0 -18.05689 0.0 0.646888 -42.0643 9.33925 0.0 67.2967 0.0 32.7215 -2.9384003 -6.2508 0.0 -20.82945 0.0 
  -8.125880126953126 7.9507598876953125 8.904180297851562 119.694 78.1039 933.476 -2.73203 -15.7677 31.5456 -0.303607 6.10239 -28.5452 7.00759 48.0511 374.146 -13.882 -81.3097 -367.774 -110.6001 -7.7804 359.346 -46.6116 15.815 -47.9661 0.0 121.788 0.0 68.0246 -45.5657 -11.4577 0.0 0.0 0.0 0.0 0.0 0.0 112.373 -10.9173 -358.524 57.1873 -7.16851 5.78978 0.0 16.5445 0.0 -0.667881 -10.5857 11.8609 0.0 0.0 0.0 0.0 0.0 0.0 -16.4319 -4.94023 -6.5508 0.0 14.0694 0.0 -6.15001 -7.7486 15.9061 0.0 -18.07247 0.0 2.32814 -43.2712 11.2365 0.0 61.756 0.0 32.617 -3.0702991 -5.18255 0.0 -21.06046 0.0 
  -8.2260498046875 7.786300048828125 8.902620239257812 123.374 78.9524 931.262 -3.22116 -16.0912 30.4542 0.568155 6.74423 -29.3013 10.5641 48.5474 371.278 -6.30841 -81.9146 -360.717 -110.519 -7.23063 359.663 -46.1421 16.3722 -47.6638 0.0 122.081 0.0 68.238 -45.7582 -10.9091 0.0 0.0 0.0 0.0 0.0 0.0 112.836 -11.1145 -358.384 56.8921 -7.37789 5.67918 0.0 16.3483 0.0 -0.825519 -10.5161 11.6704 0.0 0.0 0.0 0.0 0.0 0.0 -15.3906 -3.28919 -7.61246 0.0 14.1517 0.0 -6.24649 -8.4557 15.9179 0.0 -18.23905 0.0 4.20863 -42.7428 14.2581 0.0 56.1783 0.0 32.842 -3.2950993 -4.31796 0.0 -21.3685 0.0 
  -8.303670043945312 7.662550048828125 8.891859741210938 126.273 78.7605 927.826 -3.71692 -16.09 30.4494 0.649767 6.47078 -28.9503 13.5859 48.8727 369.002 2.16971 -82.3841 -352.768 -110.5039 -6.65829 359.746 -45.7053 16.7723 -47.1784 0.0 122.351 0.0 68.3821 -45.8495 -10.675 0.0 0.0 0.0 0.0 0.0 0.0 113.288605 -11.3971 -358.106 56.6152 -7.5443 5.73342 0.0 15.8013 0.0 -0.728697 -9.78532 11.6842 0.0 0.0 0.0 0.0 0.0 0.0 -14.9136 -2.87371 -7.07243 0.0 14.1973 0.0 -6.54913 -9.163799 15.9089 0.0 -18.35706 0.0 5.26197 -42.7576 15.9122 0.0 48.738 0.0 33.3798 -3.0634003 -1.61003 0.0 -20.719799 0.0 
  -8.382559814453124 7.525130004882812 8.87343017578125 128.338 78.2837 925.692 -4.51913 -16.4577 30.1101 0.896085 6.30973 -28.7312 15.8475 49.0426 367.357 9.34605 -82.399 -346.052 -110.4429 -6.12787 359.72 -45.5837 17.0724 -46.6647 0.0 122.669 0.0 68.5449 -46.2618 -10.2533 0.0 0.0 0.0 0.0 0.0 0.0 113.457596 -11.6857 -357.838 56.5873 -7.74019 5.8144 0.0 15.5889 0.0 -0.902402 -10.4004 11.6333 0.0 0.0 0.0 0.0 0.0 0.0 -14.7078 -2.57806 -6.68885 0.0 14.4247 0.0 -6.97458 -9.7855 15.5468 0.0 -18.51279 0.0 6.28932 -42.7726 19.2134 0.0 41.8989 0.0 34.6773 -3.1264 0.935991 0.0 -19.76926 0.0 
  -8.46364013671875 7.36468017578125 8.859949951171876 131.868 78.2045 922.656 -4.7555 -17.0961 29.7709 1.3174 6.71042 -28.9301 17.95 49.2305 365.787 16.0872 -82.6329 -339.58 -110.6078 -5.50996 359.834 -45.2748 17.3259 -46.3041 0.0 122.904 0.0 68.6528 -46.4406 -10.0855 0.0 0.0 0.0 0.0 0.0 0.0 113.8776 -11.8409 -357.526 56.3107 -7.96083 6.38735 0.0 15.2396 0.0 -0.753104 -10.554 11.0217 0.0 0.0 0.0 0.0 0.0 0.0 -14.1228 -1.96549 -6.89392 0.0 14.875 0.0 -7.6298 -10.550699 15.1508 0.0 -18.69789 0.0 6.68786 -41.5773 21.686 0.0 34.0877 0.0 37.3289 -3.6068 3.66244 0.0 -19.0372 0.0 
  -8.558289794921874 7.178270263671875 8.850960083007813 131.332 81.0835 923.608 -4.47755 -15.4764 29.7261 2.04853 7.79988 -29.0665 21.0735 49.529 363.033 23.2629 -83.0072 -332.316 -110.8337 -4.66526 362.163 -44.4263 19.0084 -47.746 0.0 123.249 0.0 68.9713 -46.3415 -9.58759 0.0 0.0 0.0 0.0 0.0 0.0 114.555 -11.7248 -358.409 55.8462 -7.27891 7.2287 0.0 14.789 0.0 -0.392008 -10.5625 11.4483 0.0 0.0 0.0 0.0 0.0 0.0 -13.0793 1.84439 -6.43913 0.0 15.1988 0.0 -8.06937 -11.1548 14.9124 0.0 -19.17548 0.0 6.84806 -36.576 24.1777 0.0 26.0108 0.0 39.6154 -4.1707993 5.65914 0.0 -18.71362 0.0 
  -8.644190063476563 7.0033502197265625 8.834039916992188 135.37 81.6016 920.126 -4.55164 -15.6552 29.4695 2.56164 8.08772 -29.2513 22.8692 50.0681 361.58 29.1334 -83.4915 -326.576 -111.1781 -4.19701 362.764 -44.0779 19.5952 -47.7703 0.0 123.429 0.0 68.5152 -46.7029 -10.2267 0.0 0.0 0.0 0.0 0.0 0.0 114.9187 -11.7325 -358.019 55.4292 -7.66721 7.74552 0.0 14.0612 0.0 0.17444 -10.0679 10.9777 0.0 0.0 0.0 0.0 0.0 0.0 -12.2696 2.82043 -5.88213 0.0 16.2843 0.0 -8.63884 -11.7463 13.9034 0.0 -19.82842 0.0 6.85267 -34.2443 27.0386 0.0 19.1308 0.0 41.1291 -4.7896004 6.80177 0.0 -17.85555 0.0 
  -8.739210205078125 6.814669799804688 8.816400146484375 140.132 82.4654 916.06 -4.57645 -15.7505 29.2549 3.28672 8.4045 -29.3985 24.5875 50.5739 360.021 33.0807 -83.8328 -322.691 -111.5707 -3.70283 363.142 -43.8509 20.1241 -47.656 0.0 123.5 0.0 68.1726 -47.1444 -10.8197 0.0 0.0 0.0 0.0 0.0 0.0 115.1958 -11.747 -357.631 55.0935 -8.21745 7.86054 0.0 13.672 0.0 -0.0509407 -10.6061 10.6923 0.0 0.0 0.0 0.0 0.0 0.0 -11.2949 4.26678 -5.65644 0.0 17.3546 0.0 -9.26003 -12.290001 13.0755 0.0 -20.48546 0.0 7.03924 -31.6278 28.7408 0.0 14.6706 0.0 43.0622 -5.8050003 7.44775 0.0 -17.72128 0.0 
  -8.847239990234375 6.618159790039062 8.793619995117188 144.618 83.0595 912.176 -4.98383 -16.0725 29.0047 4.10404 8.42914 -29.2749 26.0794 50.843 358.518 33.4277 -83.7811 -322.465 -111.6865 -3.30676 363.077 -44.1824 20.3903 -47.0209 0.0 123.519 0.0 67.7439 -47.4746 -11.921 0.0 0.0 0.0 0.0 0.0 0.0 115.1652 -11.8884 -357.897 55.0466 -8.41916 8.27914 0.0 13.1617 0.0 -0.0130307 -10.8117 10.8245 0.0 0.0 0.0 0.0 0.0 0.0 -10.4182 5.6165 -5.55159 0.0 18.4204 0.0 -9.73506 -12.5744 12.3564 0.0 -21.46094 0.0 8.16116 -30.4667 31.2935 0.0 15.5784 0.0 46.1843 -5.7812996 8.1414 0.0 -17.69843 0.0 
  -8.955709838867188 6.414959716796875 8.766959838867187 148.154 83.3768 909.015 -5.45417 -16.6594 28.8306 4.78434 8.50234 -29.063 27.0551 50.8252 357.487 31.5488 -83.3385 -324.512 -111.384 -3.1108 362.815 -45.0913 20.4666 -46.1789 0.0 123.625 0.0 67.5788 -47.7017 -12.1679 0.0 0.0 0.0 0.0 0.0 0.0 114.979095 -12.013 -358.262 55.1329 -8.53153 8.41178 0.0 12.6341 0.0 0.0940472 -11.0183 11.2482 0.0 0.0 0.0 0.0 0.0 0.0 -9.86489 6.75398 -5.91574 0.0 19.5873 0.0 -10.6565 -12.8234005 12.0156 0.0 -22.46983 0.0 9.87373 -30.3691 33.5364 0.0 19.9677 0.0 45.2209 -4.8659 8.36163 0.0 -18.83437 0.0 
  -9.06843017578125 6.195070190429687 8.75406982421875 157.37 84.0424 900.031 -5.30991 -17.1924 28.8711 5.58122 8.56308 -29.0666 27.9802 51.3338 356.602 29.9172 -83.1652 -326.285 -111.3035 -3.0629 362.935 -45.762 20.6542 -45.757 0.0 123.703 0.0 68.1219 -47.6287 -11.7971 0.0 0.0 0.0 0.0 0.0 0.0 114.9482 -12.0731 -358.35 54.8922 -8.82138 7.94078 0.0 12.0177 0.0 -0.0746875 -11.2978 11.116 0.0 0.0 0.0 0.0 0.0 0.0 -8.81366 8.32581 -6.01924 0.0 20.7097 0.0 -11.6053 -12.7882 11.9408 0.0 -23.766441 0.0 11.5767 -29.1979 33.1005 0.0 21.7524 0.0 44.6802 -3.1914997 9.03988 0.0 -18.56666 0.0 
  -9.185120239257813 5.95916015625 8.760609741210937 174.308 84.7227 883.563 -4.77189 -17.7234 28.933 6.56826 8.70926 -29.3506 28.8065 52.2379 355.949 28.5412 -83.1242 -327.911 -111.482 -3.15133 362.964 -46.321 20.6604 -45.2941 0.0 123.672 0.0 68.3635 -47.3456 -11.4607 0.0 0.0 0.0 0.0 0.0 0.0 115.1967 -12.168 -358.182 54.2577 -9.1658 7.56263 0.0 11.2871 0.0 -0.0166374 -11.5614 10.9605 0.0 0.0 0.0 0.0 0.0 0.0 -7.25183 10.2401 -6.0774 0.0 21.8427 0.0 -12.8658 -12.2166 11.8975 0.0 -26.243599 0.0 12.8973 -26.7021 32.0848 0.0 20.9989 0.0 44.034 0.4573002 7.6991 0.0 -18.48537 0.0 
  -9.302659912109375 5.722940063476562 8.779400024414063 -168.674 84.5951 867.387 -4.50876 -18.4484 28.646 7.4753 8.47631 -29.7465 29.7616 53.4223 355.214 26.5228 -83.0753 -330.159 -111.6249 -3.32625 362.833 -47.1259 20.3686 -44.7792 0.0 123.661 0.0 68.4713 -47.3991 -11.1569 0.0 0.0 0.0 0.0 0.0 0.0 115.3875 -12.3611 -358.067 53.6956 -9.49905 7.40319 0.0 10.6704 0.0 -0.0597862 -11.8622 10.8891 0.0 0.0 0.0 0.0 0.0 0.0 -5.5059 11.4507 -5.91297 0.0 23.4257 0.0 -14.12 -10.8179 11.2491 0.0 -28.043701 0.0 14.3085 -24.3214 33.6858 0.0 20.3788 0.0 42.2059 1.7824001 4.68731 0.0 -18.99426 0.0 
